<?xml version="1.0" standalone="no"?>
<!DOCTYPE svg PUBLIC "-//W3C//DTD SVG 20010904//EN"
 "http://www.w3.org/TR/2001/REC-SVG-20010904/DTD/svg10.dtd">
<svg version="1.0" xmlns="http://www.w3.org/2000/svg"
 width="645.000000pt" height="645.000000pt" viewBox="0 0 645.000000 645.000000"
 preserveAspectRatio="xMidYMid meet">
<metadata>
Created by potrace 1.11, written by Peter Selinger 2001-2013
</metadata>
<g transform="translate(0.000000,645.000000) scale(0.100000,-0.100000)"
fill="#000000" stroke="none">
<path d="M990 5276 c-238 -50 -413 -213 -475 -441 -12 -41 -19 -135 -26 -300
-19 -504 -29 -671 -43 -722 -35 -129 -88 -192 -266 -316 -132 -92 -161 -133
-168 -242 -9 -143 18 -187 177 -294 224 -151 266 -234 281 -566 5 -110 12
-301 15 -425 8 -261 21 -343 74 -456 70 -148 195 -254 366 -311 71 -24 96 -27
220 -27 131 -1 144 1 196 25 97 46 135 119 127 248 -5 88 -29 142 -82 189 -40
35 -44 37 -148 56 -106 20 -132 36 -162 98 -34 71 -43 154 -50 459 -9 394 -43
584 -131 729 -37 61 -146 171 -212 215 -24 15 -43 31 -43 34 0 4 14 15 31 25
50 30 175 153 212 209 102 155 129 306 146 822 12 330 19 376 70 426 30 31 49
39 116 54 115 24 142 34 176 62 46 39 72 98 77 180 8 128 -32 209 -125 253
-40 19 -68 23 -168 26 -76 2 -144 -2 -185 -10z"/>
<path d="M5172 5280 c-85 -18 -153 -78 -173 -153 -6 -23 -9 -76 -7 -118 8
-141 70 -207 219 -235 105 -20 143 -37 168 -78 35 -55 41 -114 51 -441 12
-443 34 -578 123 -749 44 -85 127 -177 215 -236 28 -19 52 -38 52 -41 0 -3
-25 -23 -55 -43 -30 -21 -84 -69 -120 -107 -163 -173 -199 -319 -215 -879 -13
-451 -21 -471 -213 -507 -97 -18 -124 -31 -164 -77 -45 -50 -66 -123 -61 -210
5 -101 40 -159 123 -201 57 -29 63 -30 194 -30 156 1 226 16 336 73 94 48 209
163 251 252 68 139 67 134 94 820 10 275 22 349 67 432 33 60 115 138 214 202
138 90 169 135 177 253 9 142 -25 199 -187 307 -142 95 -196 160 -243 296 -16
46 -21 101 -29 345 -18 548 -23 621 -53 708 -66 195 -202 329 -401 393 -63 20
-105 27 -200 29 -66 3 -139 0 -163 -5z"/>
<path d="M3496 4758 c-4 -34 -20 -113 -36 -174 -163 -629 -680 -1089 -1330
-1184 l-115 -16 -3 -160 -2 -161 102 -31 c227 -70 405 -96 648 -96 243 0 427
27 648 96 l102 31 0 879 c0 483 -2 878 -4 878 -2 0 -7 -28 -10 -62z"/>
<path d="M3129 4660 c-64 -21 -148 -54 -186 -73 -265 -134 -499 -370 -634
-640 -36 -71 -109 -269 -109 -295 0 -6 35 0 83 15 440 133 786 470 933 908 19
58 34 110 32 115 -2 5 -55 -8 -119 -30z"/>
<path d="M4516 4099 c-85 -13 -199 -46 -296 -88 -243 -105 -470 -321 -594
-568 -21 -42 -26 -67 -26 -123 0 -38 2 -70 5 -70 11 0 154 121 258 218 60 56
145 132 190 170 149 125 362 278 253 181 -55 -48 -327 -341 -323 -346 2 -2 23
4 48 12 73 24 216 45 313 45 l92 0 36 63 c68 118 128 290 142 407 4 30 9 67
12 83 6 31 -1 32 -110 16z"/>
<path d="M4229 3430 c-152 -18 -308 -75 -435 -159 -92 -61 -226 -188 -189
-179 11 3 88 24 170 47 185 51 400 95 565 116 68 8 127 15 130 14 3 0 -51 -16
-120 -35 -187 -52 -436 -138 -610 -212 l-155 -66 73 -23 c112 -35 204 -46 342
-40 149 6 245 30 377 92 115 54 167 90 260 178 69 66 150 164 142 171 -11 11
-136 56 -192 70 -131 33 -233 40 -358 26z"/>
<path d="M2012 2314 l3 -609 109 -33 c187 -56 358 -83 562 -89 266 -8 492 21
729 95 l90 28 3 607 c1 334 0 607 -2 607 -2 0 -23 -7 -47 -15 -319 -113 -781
-138 -1149 -64 -85 17 -240 58 -284 75 -15 6 -16 -40 -14 -602z"/>
</g>
</svg>
